{"title":"Pacific.Rim.2.Uprising.2018.1080p.HC.HDRip.AC3.LLG","magnet":"magnet:?xt=urn:btih:535d217f572e766ed97f641e01b44a90ae9c060b&dn=Pacific.Rim.2.Uprising.2018.1080p.HC.HDRip.AC3.LLG&tr=udp%3A%2F%2Ftracker.leechers-paradise.org%3A6969&tr=udp%3A%2F%2Fzer0day.ch%3A1337&tr=udp%3A%2F%2Fopen.demonii.com%3A1337&tr=udp%3A%2F%2Ftracker.coppersurfer.tk%3A6969&tr=udp%3A%2F%2Fexodus.desync.com%3A6969","uploader":"LifeLongg","categoryP":"video","categoryS":"movies","size":"1353442368","seeders":"1","leechers":"22","description":"******************************Screenshots:********************\r\n <a href=\"\nhttp://picserver4u.com/d/0581.html\" rel=\"nofollow\" target=\"_NEW\">\nhttp://picserver4u.com/d/0581.html</a>\r\n <a href=\"\nhttp://picserver4u.com/d/0582.html\" rel=\"nofollow\" target=\"_NEW\">\nhttp://picserver4u.com/d/0582.html</a>\r\n <a href=\"\nhttp://picserver4u.com/d/0583.html\" rel=\"nofollow\" target=\"_NEW\">\nhttp://picserver4u.com/d/0583.html</a>\r\n <a href=\"\nhttp://picserver4u.com/d/0584.html\" rel=\"nofollow\" target=\"_NEW\">\nhttp://picserver4u.com/d/0584.html</a>\r\n <a href=\"\nhttp://picserver4u.com/d/0585.html\" rel=\"nofollow\" target=\"_NEW\">\nhttp://picserver4u.com/d/0585.html</a>\r\n\r\n************************************************************** \r\n\r\nComplete name                            : Pacific.Rim.2.Uprising.2018.1080p.HC.HDRip.AC3.LLG.mp4\r\nFormat                                   : MPEG-4\r\nFormat profile                           : Base Media\r\nCodec ID                                 : isom (isom/iso2/avc1/mp41)\r\nFile size                                : 1.25 GiB\r\nDuration                                 : 1 h 50 min\r\nOverall bit rate                         : 1 616 kb/s\r\nWriting application                      : Lavf57.56.101\r\n\r\nVideo\r\nID                                       : 1\r\nFormat                                   : AVC\r\nFormat/Info                              : Advanced Video Codec\r\nFormat profile                           : <a href=\"/cdn-cgi/l/email-protection\" class=\"__cf_email__\" data-cfemail=\"7a32131d123a364e\">[email&#xA0;protected]</a>\r\nFormat settings                          : CABAC / 4 Ref Frames\r\nFormat settings, CABAC                   : Yes\r\nFormat settings, RefFrames               : 4 frames\r\nCodec ID                                 : avc1\r\nCodec ID/Info                            : Advanced Video Coding\r\nDuration                                 : 1 h 50 min\r\nBit rate                                 : 1 500 kb/s\r\nWidth                                    : 1 920 pixels\r\nHeight                                   : 800 pixels\r\nDisplay aspect ratio                     : 2.40:1\r\nFrame rate mode                          : Constant\r\nFrame rate                               : 29.970 (29970/1000) FPS\r\nColor space                              : YUV\r\nChroma subsampling                       : 4:2:0\r\nBit depth                                : 8 bits\r\nScan type                                : Progressive\r\nBits/(Pixel*Frame)                       : 0.033\r\nStream size                              : 1.15 GiB (92%)\r\n\r\nAudio\r\nID                                       : 2\r\nFormat                                   : AC-3\r\nFormat/Info                              : Audio Coding 3\r\nCodec ID                                 : ac-3\r\nDuration                                 : 1 h 50 min\r\nBit rate mode                            : Constant\r\nBit rate                                 : 128 kb/s\r\nChannel(s)                               : 2 channels\r\nChannel positions                        : Front: L R\r\nSampling rate                            : 48.0 kHz\r\nFrame rate                               : 31.250 FPS (1536 SPF)\r\nBit depth                                : 16 bits\r\nCompression mode                         : Lossy\r\nStream size                              : 101 MiB (8%)\r\nLanguage                                 : English\r\nService kind                             : Complete Main\r\nDefault                                  : Yes\r\nAlternate group                          : 1","last_updated":"2018-04-19T13:00:30.601Z","parsed":{"xt":"urn:btih:535d217f572e766ed97f641e01b44a90ae9c060b","dn":"Pacific.Rim.2.Uprising.2018.1080p.HC.HDRip.AC3.LLG","tr":["udp://exodus.desync.com:6969","udp://open.demonii.com:1337","udp://tracker.coppersurfer.tk:6969","udp://tracker.leechers-paradise.org:6969","udp://zer0day.ch:1337"],"infoHash":"535d217f572e766ed97f641e01b44a90ae9c060b","infoHashBuffer":{"type":"Buffer","data":[83,93,33,127,87,46,118,110,217,127,100,30,1,180,74,144,174,156,6,11]},"name":"Pacific.Rim.2.Uprising.2018.1080p.HC.HDRip.AC3.LLG","announce":["udp://exodus.desync.com:6969","udp://open.demonii.com:1337","udp://tracker.coppersurfer.tk:6969","udp://tracker.leechers-paradise.org:6969","udp://zer0day.ch:1337"],"urlList":[]}}